<?xml version="1.0" encoding="utf-8"?>
<!-- Generator: Adobe Illustrator 16.0.0, SVG Export Plug-In . SVG Version: 6.00 Build 0)  -->
<!DOCTYPE svg PUBLIC "-//W3C//DTD SVG 1.1//EN" "http://www.w3.org/Graphics/SVG/1.1/DTD/svg11.dtd">
<svg version="1.1" xmlns="http://www.w3.org/2000/svg" xmlns:xlink="http://www.w3.org/1999/xlink" x="0px" y="0px"
	 width="252.333px" height="252.333px" viewBox="0 0 252.333 252.333" enable-background="new 0 0 252.333 252.333"
	 xml:space="preserve">
<g id="Calque_2">
	
		<circle fill-rule="evenodd" clip-rule="evenodd" fill="none" stroke="#808285" stroke-width="7" stroke-miterlimit="10" cx="126.167" cy="126.167" r="122.667"/>
</g>
<g id="Calque_1">
	<g id="JVppnD_1_">
		<g>
			<path fill-rule="evenodd" clip-rule="evenodd" fill="#DD5F94" d="M100.229,99.485c0.163-1.338,0.084-2.048,0.348-2.59
				c0.584-1.2,1.1-2.957,2.081-3.327c1.774-0.67,3.19,0.858,3.797,2.409c3.07,7.856,6.703,15.503,8.657,23.781
				c1.054,4.466,2.671,8.798,3.754,13.259c1.623,6.682,2.998,13.423,4.48,20.139c0.086,0.389,0.125,0.805,0.295,1.154
				c0.432,0.889,0.926,1.747,1.396,2.618c0.589-0.681,1.335-1.28,1.74-2.057c1.813-3.477,3.695-6.933,5.241-10.529
				c2.083-4.847,3.852-9.828,5.812-14.729c1.291-3.227,3.087-6.309,3.945-9.639c2.078-8.06,3.77-16.22,5.549-24.354
				c0.538-2.457,1.764-3.874,3.597-3.122c1.098,0.45,2.151,2.001,2.445,3.241c1.055,4.459-0.785,8.57-2.066,12.716
				c-0.655,2.119-1.585,4.167-2.085,6.318c-1.274,5.48-3.516,10.539-6.215,15.437c-0.64,1.161-1.008,2.472-1.516,3.706
				c-2.65,6.435-5.306,12.867-7.96,19.301c-1.527,3.703-3.148,7.371-4.533,11.127c-0.469,1.271-0.344,2.764-0.487,4.156
				c-0.17,1.654-0.16,3.356-0.585,4.942c-0.184,0.686-1.211,1.451-1.952,1.568c-0.444,0.069-1.353-0.953-1.576-1.64
				c-1.351-4.148-2.709-8.305-3.789-12.528c-1.373-5.375-2.335-10.855-3.747-16.218c-1.369-5.203-3.1-10.31-4.637-15.469
				c-0.497-1.668-0.766-3.41-1.35-5.044c-1.003-2.808-2.165-5.56-3.275-8.329c-0.529-1.318-1.017-2.661-1.657-3.925
				c-1.372-2.708-2.917-5.331-4.22-8.07C100.979,102.241,100.582,100.534,100.229,99.485z"/>
			<path fill-rule="evenodd" clip-rule="evenodd" fill="#DD5F94" d="M188.351,64.812c1.349-0.327,2.698-0.654,4.044-0.98
				c0.341-0.032,0.686-0.065,1.03-0.099c6.346-0.347,11.759,1.477,16.026,6.45c2.608,3.04,3.01,8.342-2.674,10.764
				c-3.981,1.696-7.961,3.25-12.407,2.997c-0.354-0.02-0.73,0.368-1.096,0.566c-0.144-0.043-0.251-0.004-0.323,0.118
				c0.111,0.578,0.157,1.177,0.347,1.729c0.624,1.814-0.598,4.15-2.479,4.166c-4.198,0.037-8.399-0.17-12.598-0.276
				c0.001,0.002-0.005,0.006-0.005,0.006c-2.357-1.478-4.769-2.881-7.045-4.475c-0.823-0.576-1.358-1.587-1.965-2.442
				c-0.638-0.896-1.007-2.362-2.497-0.84c-0.088,0.089-1.311-0.516-1.339-0.854c-0.23-2.755-1.621-1.745-2.964-1.01
				c-0.252,0.054-0.502,0.111-0.753,0.167c-2.876,0.042-5.764,0.273-8.624,0.084c-5.161-0.342-8.656-5.239-7.338-10.263
				c0.655-2.495,2.916-3.54,5.16-4.059c1.624-0.375,1.797-0.511,0.917-2.042c-2.007-3.49-3.484-7.169-3.362-11.387
				c0.093-3.168,0.801-6.029,3.559-7.667c3.146-1.868,6.502-1.583,9.609,0.438c5.635,3.664,8.896,9.063,10.954,15.279
				c0.509,1.534,0.704,3.177,0.957,4.784c0.039,0.248-0.392,0.57-0.604,0.857c-0.12-0.273-0.303-0.536-0.354-0.821
				c-1.378-7.819-6.032-13.55-12.117-18.12c-3.969-2.979-7.677-1.911-9.338,3.027c-1.996,5.935,2.038,11.842,6.251,15.336
				c0.874,0.725,2.317,0.738,3.463,1.172c0.628,0.238,1.43,0.531,1.718,1.044c0.595,1.056,0.897,2.276,1.32,3.429
				c-1.26,0.001-2.636,0.323-3.75-0.08c-1.294-0.469-2.4-1.521-3.516-2.411c-2.469-1.969-8.108-0.019-8.718,3.048
				c-0.369,1.863,2.294,4.95,4.808,5.561c0.387,0.094,0.78,0.158,1.163,0.234c-0.008-0.002,0.13,0.021,0.13,0.021
				c3.118,0.039,6.237,0.078,9.359,0.119c0.177,0.018,0.316-0.042,0.422-0.18c1.731,0.133,2.682-0.707,3.622-2.181
				c1.773-2.781,3.743-5.486,5.983-7.896c0.975-1.048,1.97-1.62,1.644-3.295c-0.105-0.54,0.626-1.545,1.228-1.871
				c5.062-2.743,6.529-7.492,6.79-12.654c0.149-2.947-0.502-5.953-0.981-8.901c-0.11-0.678-0.995-1.229-1.523-1.838
				c-0.563,0.542-1.542,1.032-1.618,1.637c-0.305,2.42-0.348,4.875-0.423,7.319c-0.006,0.178,0.521,0.35,0.765,0.565
				c0.375,0.33,1.079,0.838,1.008,1.021c-0.231,0.587-0.754,1.061-1.164,1.578c-0.354-0.301-0.926-0.542-1.026-0.913
				c-0.385-1.416-0.919-2.888-0.841-4.31c0.14-2.569,0.366-5.218,1.158-7.637c0.544-1.663,2.246-1.767,3.564-0.352
				c3.021,3.241,3.236,7.301,2.827,11.322c-0.459,4.516-2.228,8.606-5.079,12.234c-0.413,0.525-0.07,1.839,0.271,2.641
				c0.099,0.231,1.409-0.052,2.165-0.1c0,0,0.031,0.031,0.031,0.031c-0.653,0.852-1.341,1.681-1.942,2.568
				c-0.184,0.271-0.135,0.7-0.192,1.056c0.308,0.04,0.675,0.209,0.913,0.099c2.481-1.142,4.942-2.329,7.409-3.503L188.351,64.812z
				 M187.419,67.35c-3.299,0.202-6.317,1.455-8.666,3.58c-2.996,2.711-5.567,5.902-8.215,8.979
				c-0.364,0.424-0.431,1.614-0.104,2.046c4.271,5.64,10.103,7.966,17.036,7.469c0.9-0.064,2.303-1.318,2.427-2.174
				c0.209-1.429-0.086-3.138-2.222-3.481c-0.939-0.151-1.881-0.613-2.689-1.138c-0.433-0.281-0.935-1.172-0.782-1.476
				c0.266-0.531,0.973-1.052,1.567-1.156c0.719-0.125,1.723-0.065,2.238,0.358c1.629,1.339,3.451,1.65,5.414,1.419
				c1.614-0.19,3.271-0.354,4.802-0.859c2.562-0.847,5.232-1.637,7.503-3.03c3.345-2.051,3.181-6.257-0.146-8.412
				c-2.796-1.81-5.768-3.259-9.275-2.958c-2.818,0.242-5.64,0.434-8.459,0.647C187.705,67.226,187.562,67.288,187.419,67.35z
				 M176.145,65.828c0.28,0.614,0.487,1.07,0.694,1.525c0.27-0.533,0.665-1.045,0.758-1.607c0.053-0.32-0.392-0.721-0.612-1.085
				C176.712,65.039,176.44,65.417,176.145,65.828z M180.283,68.794c-1.053-0.196-1.479-0.337-1.901-0.33
				c-0.25,0.004-0.497,0.241-0.745,0.374c0.45,0.18,0.889,0.415,1.356,0.513C179.202,69.394,179.468,69.161,180.283,68.794z"/>
			<path fill-rule="evenodd" clip-rule="evenodd" fill="#6D6F71" d="M74.746,128.865c-0.405,6.149-0.784,11.666-1.11,17.186
				c-0.038,0.635,0.222,1.286,0.344,1.929c0.31-0.485,0.63-0.965,0.927-1.459c2.188-3.646,4.564-7.196,6.493-10.974
				c1.439-2.817,1.945-6.133,3.513-8.855c1.644-2.855,4.031-5.291,6.182-7.836c0.192-0.228,1.376-0.086,1.511,0.182
				c1.107,2.193,2.569,4.369,2.982,6.717c0.909,5.16,1.226,10.423,1.866,15.634c0.279,2.266,0.67,4.527,1.188,6.749
				c0.233,1.002,0.902,1.902,1.374,2.849c0.846-0.462,1.942-0.727,2.492-1.423c1.677-2.124,3.042-4.497,4.739-6.604
				c0.8-0.993,2.079-1.601,3.141-2.382c0.253,1.295,1.047,2.781,0.667,3.853c-1.637,4.623-3.415,9.246-8.136,11.813
				c-3.242,1.762-5.884,1.811-7.302-2.207c-1.172-3.319-1.814-6.861-2.366-10.356c-0.732-4.641-1.129-9.334-1.724-13.998
				c-0.073-0.571-0.475-1.102-0.725-1.65c-0.367,0.438-0.851,0.823-1.082,1.325c-1.933,4.192-3.66,8.487-5.766,12.589
				c-1.917,3.734-4.232,7.265-6.367,10.888c-0.996,1.689-1.853,3.479-3.019,5.04c-0.602,0.806-1.71,1.584-2.648,1.661
				c-0.618,0.051-1.562-1.059-1.968-1.85c-0.831-1.619-1.096-3.253-0.631-5.24c0.479-2.045-0.172-4.33-0.134-6.508
				c0.142-7.949,0.323-15.899,0.62-23.845c0.031-0.825,0.934-1.617,1.431-2.425c0.863,0.713,2.451,0.358,2.529,2.273
				C73.872,124.452,74.456,126.944,74.746,128.865z"/>
			<path fill-rule="evenodd" clip-rule="evenodd" fill="#6D6F71" d="M39.788,148.215c0.518-5.142,1.048-10.282,1.537-15.426
				c0.066-0.697-0.164-1.422-0.107-2.121c0.125-1.561-0.697-3.633,2.189-3.768c0.496-0.023,1.102-1.416,1.354-2.266
				c1.19-3.989,3.233-7.393,6.362-10.174c2.759-2.453,6.629-1.665,8,1.795c1.851,4.67,1.292,9.079-0.747,13.719
				c-2.098,4.773-5.811,7.23-10.176,9.203c-0.461,0.208-1.08,0.036-1.593,0.167c-0.471,0.121-1.189,0.315-1.301,0.646
				c-1.426,4.204-2.174,8.597-0.969,12.881c1.275,4.535,6.313,5.311,9.557,1.797c1.922-2.083,3.828-4.193,5.891-6.13
				c0.915-0.857,1.93-0.819,2.492,0.745c0.91,2.532-0.379,4.667-1.558,6.429c-2.342,3.5-5.403,6.402-9.673,7.622
				c-2.066,0.591-6.952-0.904-8.202-3.049C40.622,156.475,39.622,152.563,39.788,148.215z M56.833,121.176
				c-0.786-0.679-1.823-1.809-2-1.688c-1.383,0.951-2.948,1.929-3.793,3.306c-1.505,2.45-2.554,5.182-3.764,7.81
				c-0.16,0.347-0.147,0.772-0.214,1.161c0.457-0.045,1.043,0.076,1.349-0.163c1.906-1.489,3.995-2.85,5.534-4.667
				C55.195,125.457,55.76,123.398,56.833,121.176z"/>
			<path fill-rule="evenodd" clip-rule="evenodd" fill="#6D6F71" d="M159.791,162.544c-5.205-0.15-6.308-1.588-7.407-6.647
				c-0.972-4.47-0.858-8.933,0.058-13.354c1.054-5.083,2.283-10.132,3.551-15.167c0.509-2.024,1.203-4.025,2.053-5.93
				c0.324-0.724,1.739-1.026,1.94-1.728c1.106-3.838,4.632-2.285,6.961-2.942c1.107-0.313,3.146,1.518,4.317,2.788
				c3.92,4.25,5.671,9.587,5.91,15.178c0.24,5.629-0.999,11.201-4.038,16.046c-1.853,2.954-4.088,5.806-6.676,8.116
				C164.452,160.697,161.634,161.58,159.791,162.544z M172.828,137.042c-0.095-1.049,0.083-2.752-0.448-4.193
				c-1.179-3.199-2.605-6.324-4.188-9.345c-0.341-0.65-1.765-0.733-2.689-1.078c-0.188,0.806-0.535,1.612-0.53,2.417
				c0.009,1.316,0.024,2.268-1.795,2.291c-0.696,0.01-1.728,0.966-2.007,1.715c-1.152,3.088-1.896,6.332-3.123,9.387
				c-1.896,4.727-1.918,9.706-2.418,14.632c-0.283,2.787,2.199,4.771,4.736,3.736c3.051-1.243,5.376-3.51,7.627-5.776
				C171.601,147.193,172.829,142.571,172.828,137.042z"/>
			<path fill-rule="evenodd" clip-rule="evenodd" fill="#6D6F71" d="M184.031,148.094c-0.199-4.204-0.646-8.416-0.53-12.611
				c0.126-4.575,0.978-9.128,1.146-13.704c0.265-7.172,0.175-14.357,0.372-21.533c0.025-0.902,0.7-1.984,1.402-2.622
				c0.923-0.84,2.026-0.586,2.35,0.761c0.434,1.81,0.983,3.673,0.94,5.5c-0.089,3.774-0.618,7.536-0.81,11.311
				c-0.131,2.597,0.086,5.209,0,7.81c-0.271,8.268-0.682,16.531-0.869,24.801c-0.038,1.664,0.665,3.345,1.025,5.018
				c1.238-0.884,2.48-1.763,3.715-2.651c1.925-1.386,3.79-2.867,5.797-4.122c0.722-0.451,1.778-0.366,2.683-0.526
				c0.17,1.098,0.862,2.534,0.411,3.229c-1.358,2.089-2.961,4.124-4.846,5.739c-2.115,1.815-4.625,3.178-6.997,4.685
				c-1.608,1.021-3.279,0.832-3.905-0.979c-1.119-3.232-1.832-6.604-2.715-9.919C183.478,148.217,183.755,148.156,184.031,148.094z"
				/>
			<path fill-rule="evenodd" clip-rule="evenodd" fill="#DD5F94" d="M182.982,63.5c1.797-3.614,3.659-7.197,5.369-10.851
				c1.203-2.573,2.145-5.267,3.305-7.862c0.931-2.081,2.691-2.757,4.85-2.329c2.069,0.411,2.086,2.289,2.396,3.805
				c0.646,3.162-1.291,7.214-3.697,9.096c-1.239,0.97-1.497,0.375-1.788-0.513c-0.307-0.932-0.646-1.965-0.521-2.894
				c0.105-0.793,0.849-1.501,1.31-2.247c0.002,0.814-0.06,1.636,0.024,2.441c0.07,0.671,0.311,1.324,0.475,1.985
				c0.578-0.408,1.565-0.735,1.664-1.237c0.479-2.452,0.828-4.945,0.972-7.437c0.036-0.619-0.756-1.657-1.365-1.838
				c-0.611-0.182-1.646,0.277-2.188,0.784c-2.482,2.319-3.041,5.588-3.943,8.651c-1.233,4.186-2.846,8.092-6.66,10.644
				C183.105,63.645,183.039,63.578,182.982,63.5z"/>
			<path fill-rule="evenodd" clip-rule="evenodd" fill="#DD5F94" d="M181.347,47.469c-0.246,0.526-0.477,1.02-0.708,1.514
				c-0.16-0.471-0.452-0.944-0.444-1.412c0.008-0.432,0.337-0.857,0.524-1.285C180.909,46.645,181.099,47.002,181.347,47.469z"/>
			<path fill-rule="evenodd" clip-rule="evenodd" fill="#FDFCF2" d="M193.425,63.732c-0.345,0.034-0.689,0.067-1.03,0.099
				c-0.065,0.017-0.135,0.037-0.205,0.051c-0.018,0.003-0.039-0.017-0.059-0.027C192.562,63.814,192.993,63.773,193.425,63.732z"/>
			<path fill-rule="evenodd" clip-rule="evenodd" fill="#FDFCF2" d="M161.654,80.798c0.251-0.057,0.501-0.114,0.753-0.167
				C162.157,80.689,161.905,80.744,161.654,80.798z"/>
			<path fill-rule="evenodd" clip-rule="evenodd" fill="#FDFCF2" d="M192.951,84.627c0.072-0.122,0.18-0.162,0.323-0.118
				c0.135-0.01,0.271-0.021,0.405-0.033C193.437,84.526,193.194,84.577,192.951,84.627z"/>
			<path fill-rule="evenodd" clip-rule="evenodd" fill="#FDFCF2" d="M163.724,78.205c-0.105,0.137-0.245,0.198-0.422,0.18
				c-0.114-0.018-0.226-0.035-0.337-0.051C163.218,78.291,163.471,78.248,163.724,78.205z"/>
			<path fill-rule="evenodd" clip-rule="evenodd" fill="#FDFCF2" d="M153.942,78.266c0,0-0.138-0.023-0.13-0.021
				c0.156,0.001,0.305,0.001,0.453,0C154.157,78.252,154.05,78.259,153.942,78.266z"/>
			<path fill-rule="evenodd" clip-rule="evenodd" fill="#DD5F94" d="M183.185,63.701c-0.354,0.301-0.707,0.603-1.062,0.903
				c0,0-0.031-0.03-0.031-0.031c0.296-0.357,0.593-0.715,0.891-1.072C183.039,63.578,183.105,63.645,183.185,63.701z"/>
			<polygon fill-rule="evenodd" clip-rule="evenodd" fill="#FDFCF2" points="178.217,90.251 178.222,90.246 178.075,90.279 			"/>
			<path fill-rule="evenodd" clip-rule="evenodd" fill="#FDFCF2" d="M188.351,64.812l-0.04,0.012
				C188.323,64.82,188.337,64.816,188.351,64.812z"/>
			<path fill-rule="evenodd" clip-rule="evenodd" fill="#FDFCF2" d="M187.848,67.164c0.076-0.007,0.152-0.014,0.229-0.021
				c-0.224,0.069-0.446,0.139-0.663,0.208C187.562,67.288,187.705,67.226,187.848,67.164z"/>
		</g>
	</g>
</g>
</svg>
