<?xml version="1.0" encoding="utf-8"?>
<!-- Generator: Adobe Illustrator 16.0.0, SVG Export Plug-In . SVG Version: 6.00 Build 0)  -->
<!DOCTYPE svg PUBLIC "-//W3C//DTD SVG 1.1//EN" "http://www.w3.org/Graphics/SVG/1.1/DTD/svg11.dtd">
<svg version="1.1" id="Calque_1" xmlns="http://www.w3.org/2000/svg" xmlns:xlink="http://www.w3.org/1999/xlink" x="0px" y="0px"
	 width="252.333px" height="252.333px" viewBox="0 0 252.333 252.333" enable-background="new 0 0 252.333 252.333"
	 xml:space="preserve">
<g id="Calque_2">
	<circle fill="none" stroke="#808285" stroke-width="7" stroke-miterlimit="10" cx="126.167" cy="126.167" r="122.667"/>
</g>
<g id="Calque_1_1_">
	<path fill="#BADA55" d="M115.69,182.409c-1.283-1.156-2.238-0.516-2.238-0.516c-1.534,1.094-2.955,0.704-2.955,0.704
		c-1.408-0.517-5.445-3.659-5.445-3.659c-1.534-3.27-1.987-1.094-1.987-1.094c-1.924-1.735-2.754-7.307-2.754-7.307
		c-1.232-9.871-1.735-15.127-1.735-15.127c-0.063-0.643,0.251-4.238,0.251-4.238c1.735-3.975-0.767-6.086-0.767-6.086
		c-0.188-1.094-2.314-3.723-2.314-3.723c-0.956-2.816-6.023-10.715-6.023-10.715c-0.062-0.829-0.641-1.156-0.641-1.156
		c0.251-1.094-0.704-2.377-0.704-2.377c-0.704-1.408,0.704-7.444,0.704-7.444c0.956-0.893,1.22-3.848,1.22-3.848
		c1.031-1.22,1.22-4.678,1.22-4.678c1.031-1.534,2.754-8.086,2.754-8.086c0.516,1.408,4.489,2.238,4.489,2.238
		c-0.063,0.579,1.22,0.704,1.22,0.704c0,0.768,1.283,1.534,1.283,1.534c0.251,0.704,1.22,1.861,1.22,1.861
		c0.251,0.516-0.251,0.767-0.251,0.767c-1.408,0.579,0.188,1.346,0.188,1.346c1.22,0.188,2.176-1.031,2.176-1.031
		c0.516,0,1.283-1.282,1.283-1.282c1.597-0.956,1.031-3.722,1.031-3.722c-0.453-1.283-1.345-1.534-1.345-1.534
		c-1.283-0.314-2.05-1.031-2.05-1.031c-0.704-1.346-2.955-1.534-2.955-1.534c-0.39-0.063-1.346-2.113-1.346-2.113
		c-0.767-2.049-1.823-2.564-1.823-2.564l-0.164-1.472c0.767-1.22,0.251-3.396,0.251-3.396c0.126-2.175-0.503-2.565-0.503-2.565
		l-0.013-3.722c0.252-4.741-5.004-5.646-5.004-5.646c0.893-0.314,0.83-1.597,0.83-1.597c0-1.031,0.377-1.786,0.377-1.786
		c0.528-0.867,0.78-1.811,0.78-1.811c0.956-1.282,0.578-2.955,0.578-2.955c0.063-0.955,0.579-1.282,0.579-1.282l0.188-0.579
		c0.767-0.578,0.251-2.049,0.251-2.049c0.327-3.27-3.018-6.288-3.018-6.288c-1.346-2.754-9.23-0.327-9.23-0.327
		c-4.099,2.238-2.754,8.4-2.754,8.4c-0.39,0.768,0.705,2.301,0.705,2.301l0.113,1.082c-0.516,1.094,0.679,1.207,0.679,1.207
		c0.214,1.207-0.792,3.408-0.792,3.408l-1.031,0.062c-0.516-0.314-1.471,0.453-1.471,0.453c-0.704-0.516-2.691,0.39-2.691,0.39
		c-1.094-0.453-4.804,0.251-4.804,0.251c-1.346,0-3.911,3.396-3.911,3.396c-1.031-0.062-1.861,1.673-1.861,1.673
		c-0.767-0.252-1.672,1.282-1.672,1.282c-1.346,0.251-1.22,2.112-1.22,2.112c-0.189,0.516-3.081,2.88-3.081,2.88
		c-2.565,2.238-2.628,3.207-2.628,3.207c-0.453,3.596,5.772,8.789,5.772,8.789c3.521,2.817,3.722,3.974,3.722,3.974
		c-0.515,1.283,0.705,1.409,0.705,1.409c-0.189,0.578,0.704,0.767,0.704,0.767c-0.39,0.956,0.704,3.144,0.704,3.144
		c0.642,2.503,2.955,1.735,2.955,1.735c-1.798,2.88-0.968,9.268-0.968,9.268c-1.987,2.276-0.83,8.174-0.83,8.174
		c0,2.754,1.094,3.91,1.094,3.91c-0.704,0.768-3.458,10.262-3.458,10.262c-1.094,2.238-2.691,2.238-2.691,2.238
		c-6.414-1.672-12.701,1.672-12.701,1.672c-3.018,1.598-8.4,2.816-8.4,2.816c0.83-0.641-0.768-0.893-0.768-0.893
		c-1.031-1.282-3.722-1.674-3.722-1.674c-2.176-0.312-3.333,2.113-3.333,2.113c-1.798,2.969-1.421,4.502-1.421,4.502
		c0.125,0.955-1.534,2.439-1.534,2.439c-2.955,1.861-2.314,9.619-2.314,9.619c0.188,0.453,1.208,0.642,1.208,0.642
		c2.389,0.642,2.389-1.407,2.389-1.407c-0.063-1.598,1.798-3.623,1.798-3.623c0.893-1.281,4.401-3.043,4.401-3.043h2.201
		c1.534-1.057,0-1.697,0-1.697c1.22-1.672,8.148-2.2,8.148-2.2c5.445,0.579,12.311-0.905,12.311-0.905
		c0.767,0.126,5.256-0.39,5.256-0.39c3.785,0.768,6.162-4.363,6.162-4.363c4.69-4.101,7.495-8.79,7.495-8.79
		c0.39,0.83,8.588,7.759,8.588,7.759l-0.453,5.067c-0.314,7.885,1.672,9.872,1.672,9.872l3.798,9.343
		c1.471,3.923,1.019,6.689,1.019,6.689c-0.956,0.703,0.063,6.287,0.063,6.287l0.125,1.03c0.83,0.705,5.772,0.541,5.772,0.541
		c0.453-0.704,2.314-0.251,2.314-0.251h2.175c6.728-0.265,9.293-4.376,9.293-4.376C116.583,183.39,115.69,182.409,115.69,182.409z
		 M71.829,105.262l-0.515-0.39c-0.126-0.642-0.579-0.956-0.579-0.956c-0.126-0.893-1.22-0.704-1.22-0.704
		c-0.956-0.453-2.88-3.145-2.88-3.145c-1.22-1.734-2.628-6.225-2.628-6.225c0-0.39,1.798-1.471,1.798-1.471l0.767,0.768
		c1.031-0.189,3.848-2.44,3.848-2.44l1.408,6.413C72.722,102.759,71.829,105.262,71.829,105.262z"/>
	<g>
		<path fill="#808284" d="M141.593,107.13c-0.23-4.334-0.509-9.545-0.462-13.418h-0.139c-1.061,3.643-2.352,7.516-3.92,11.805
			l-5.486,15.079h-3.043l-5.026-14.802c-1.476-4.381-2.721-8.393-3.597-12.082h-0.092c-0.092,3.874-0.323,9.084-0.599,13.742
			l-0.83,13.326h-3.828l2.167-31.08h5.118l5.303,15.033c1.291,3.827,2.353,7.239,3.135,10.468h0.14
			c0.782-3.136,1.892-6.549,3.272-10.468L139.24,89.7h5.118l1.938,31.08h-3.92L141.593,107.13z"/>
		<path fill="#808284" d="M157.043,111.004l-3.228,9.775h-4.149l10.561-31.08h4.842l10.605,31.08h-4.289l-3.319-9.775H157.043z
			 M167.235,107.869l-3.044-8.946c-0.69-2.029-1.151-3.874-1.612-5.672h-0.094c-0.461,1.844-0.968,3.735-1.566,5.625l-3.045,8.992
			L167.235,107.869L167.235,107.869z"/>
		<path fill="#808284" d="M180.243,90.115c2.028-0.415,4.935-0.646,7.7-0.646c4.289,0,7.056,0.784,8.992,2.536
			c1.567,1.383,2.442,3.504,2.442,5.902c0,4.104-2.582,6.825-5.854,7.931v0.139c2.397,0.83,3.827,3.043,4.563,6.271
			c1.016,4.334,1.754,7.331,2.398,8.53h-4.15c-0.506-0.876-1.198-3.551-2.074-7.424c-0.922-4.288-2.582-5.902-6.225-6.041h-3.781
			v13.465h-4.012V90.115L180.243,90.115z M184.254,104.271h4.104c4.288,0,7.009-2.352,7.009-5.902c0-4.012-2.904-5.764-7.146-5.81
			c-1.938,0-3.319,0.185-3.965,0.369v11.343H184.254z"/>
		<path fill="#808284" d="M226.911,119.765c-1.476,0.738-4.427,1.476-8.207,1.476c-8.763,0-15.355-5.533-15.355-15.724
			c0-9.729,6.594-16.324,16.23-16.324c3.873,0,6.317,0.83,7.379,1.383l-0.97,3.274c-1.521-0.737-3.688-1.291-6.271-1.291
			c-7.286,0-12.129,4.657-12.129,12.819c0,7.608,4.382,12.496,11.943,12.496c2.443,0,4.934-0.507,6.549-1.291L226.911,119.765z"/>
		<path fill="#808284" d="M128.155,132.788c-0.117-2.22-0.26-4.889-0.236-6.873h-0.07c-0.543,1.866-1.205,3.85-2.008,6.046
			l-2.811,7.725h-1.559l-2.574-7.582c-0.756-2.244-1.394-4.299-1.843-6.188h-0.047c-0.047,1.984-0.166,4.653-0.307,7.04
			l-0.425,6.825h-1.96l1.11-15.92h2.622l2.716,7.7c0.662,1.96,1.205,3.708,1.606,5.361h0.071c0.401-1.605,0.968-3.354,1.677-5.361
			l2.833-7.7h2.622l0.992,15.92h-2.007L128.155,132.788z"/>
		<path fill="#808284" d="M144.147,133.969c0,4.228-2.929,6.07-5.691,6.07c-3.096,0-5.48-2.269-5.48-5.883
			c0-3.826,2.504-6.07,5.669-6.07C141.927,128.086,144.147,130.473,144.147,133.969z M135.077,134.086
			c0,2.504,1.44,4.395,3.473,4.395c1.984,0,3.473-1.866,3.473-4.441c0-1.937-0.969-4.393-3.425-4.393
			C136.14,129.647,135.077,131.915,135.077,134.086z"/>
		<path fill="#808284" d="M146.77,131.442c0-1.182-0.023-2.148-0.096-3.095h1.844l0.117,1.89h0.048
			c0.565-1.086,1.89-2.148,3.778-2.148c1.582,0,4.039,0.945,4.039,4.865v6.826h-2.078v-6.59c0-1.843-0.686-3.378-2.646-3.378
			c-1.369,0-2.433,0.969-2.787,2.126c-0.094,0.26-0.142,0.614-0.142,0.968v6.874h-2.078L146.77,131.442L146.77,131.442z"/>
		<path fill="#808284" d="M162.288,125.064v3.283h2.977v1.583h-2.977v6.165c0,1.417,0.401,2.22,1.56,2.22
			c0.543,0,0.944-0.07,1.204-0.143l0.095,1.561c-0.401,0.165-1.039,0.283-1.842,0.283c-0.97,0-1.748-0.309-2.244-0.874
			c-0.591-0.614-0.804-1.63-0.804-2.978v-6.234h-1.771v-1.583h1.771v-2.739L162.288,125.064z"/>
		<path fill="#808284" d="M167.603,132.081c0-1.466-0.048-2.646-0.095-3.732h1.865l0.096,1.961h0.047
			c0.852-1.395,2.195-2.221,4.062-2.221c2.764,0,4.842,2.339,4.842,5.811c0,4.11-2.504,6.143-5.196,6.143
			c-1.513,0-2.834-0.662-3.521-1.795h-0.047v6.211h-2.055L167.603,132.081L167.603,132.081z M169.657,135.125
			c0,0.309,0.047,0.592,0.096,0.852c0.377,1.439,1.629,2.434,3.117,2.434c2.196,0,3.473-1.796,3.473-4.418
			c0-2.291-1.205-4.252-3.401-4.252c-1.417,0-2.739,1.016-3.142,2.575c-0.07,0.261-0.143,0.565-0.143,0.851V135.125L169.657,135.125
			z"/>
		<path fill="#808284" d="M182.2,134.442c0.047,2.811,1.844,3.969,3.922,3.969c1.487,0,2.385-0.261,3.164-0.592l0.354,1.488
			c-0.731,0.331-1.984,0.709-3.804,0.709c-3.52,0-5.621-2.314-5.621-5.764c0-3.448,2.031-6.166,5.361-6.166
			c3.731,0,4.725,3.283,4.725,5.387c0,0.425-0.047,0.756-0.07,0.969H182.2z M188.293,132.954c0.023-1.322-0.543-3.377-2.881-3.377
			c-2.103,0-3.023,1.937-3.188,3.377H188.293z"/>
		<path fill="#808284" d="M192.877,123.009h2.078v16.771h-2.078V123.009z"/>
		<path fill="#808284" d="M198.452,123.009h2.077v16.771h-2.077V123.009z"/>
		<path fill="#808284" d="M206.34,125.135c0.022,0.708-0.496,1.275-1.322,1.275c-0.732,0-1.252-0.567-1.252-1.275
			c0-0.732,0.543-1.3,1.299-1.3C205.844,123.835,206.34,124.403,206.34,125.135z M204.025,139.78v-11.433h2.078v11.433H204.025z"/>
		<path fill="#808284" d="M210.709,134.442c0.047,2.811,1.844,3.969,3.922,3.969c1.488,0,2.386-0.261,3.164-0.592l0.354,1.488
			c-0.731,0.331-1.983,0.709-3.803,0.709c-3.521,0-5.622-2.314-5.622-5.764c0-3.448,2.031-6.166,5.361-6.166
			c3.731,0,4.725,3.283,4.725,5.387c0,0.425-0.047,0.756-0.07,0.969H210.709z M216.804,132.954c0.022-1.322-0.543-3.377-2.882-3.377
			c-2.103,0-3.023,1.937-3.188,3.377H216.804z"/>
		<path fill="#808284" d="M221.387,131.915c0-1.347-0.023-2.504-0.096-3.566h1.818l0.071,2.244h0.095
			c0.52-1.535,1.771-2.504,3.165-2.504c0.235,0,0.401,0.022,0.59,0.07v1.961c-0.212-0.048-0.425-0.07-0.708-0.07
			c-1.465,0-2.504,1.109-2.787,2.669c-0.048,0.282-0.095,0.614-0.095,0.969v6.094h-2.055L221.387,131.915L221.387,131.915z"/>
		<path fill="#808284" d="M116.204,152.78l-0.095-0.824h-0.041c-0.365,0.515-1.067,0.974-1.999,0.974
			c-1.323,0-1.999-0.933-1.999-1.877c0-1.58,1.404-2.444,3.93-2.431v-0.136c0-0.54-0.148-1.513-1.485-1.513
			c-0.608,0-1.243,0.189-1.702,0.486l-0.27-0.783c0.54-0.353,1.323-0.581,2.147-0.581c1.999,0,2.485,1.364,2.485,2.674v2.444
			c0,0.566,0.027,1.121,0.108,1.565L116.204,152.78L116.204,152.78z M116.028,149.444c-1.296-0.025-2.768,0.203-2.768,1.473
			c0,0.771,0.513,1.135,1.121,1.135c0.851,0,1.391-0.54,1.58-1.094c0.041-0.121,0.067-0.258,0.067-0.379V149.444L116.028,149.444z"
			/>
		<path fill="#808284" d="M120.468,144.368v1.877h1.702v0.904h-1.702v3.523c0,0.811,0.23,1.271,0.892,1.271
			c0.311,0,0.54-0.041,0.688-0.081l0.054,0.891c-0.229,0.096-0.594,0.162-1.053,0.162c-0.554,0-1-0.175-1.283-0.498
			c-0.337-0.353-0.459-0.934-0.459-1.703v-3.563h-1.013v-0.905h1.013v-1.565L120.468,144.368z"/>
		<path fill="#808284" d="M123.504,143.192h1.188v4.078h0.027c0.189-0.338,0.486-0.635,0.851-0.837
			c0.351-0.203,0.77-0.338,1.216-0.338c0.877,0,2.281,0.54,2.281,2.796v3.889h-1.188v-3.754c0-1.054-0.393-1.943-1.513-1.943
			c-0.77,0-1.377,0.539-1.593,1.188c-0.068,0.162-0.081,0.338-0.081,0.566v3.943h-1.188V143.192z"/>
		<path fill="#808284" d="M130.997,143.192h1.188v9.588h-1.188V143.192z"/>
		<path fill="#808284" d="M134.842,149.728c0.027,1.606,1.055,2.269,2.242,2.269c0.852,0,1.363-0.147,1.81-0.338l0.203,0.852
			c-0.419,0.188-1.136,0.404-2.175,0.404c-2.012,0-3.215-1.322-3.215-3.295c0-1.972,1.162-3.523,3.065-3.523
			c2.134,0,2.701,1.877,2.701,3.078c0,0.244-0.027,0.433-0.04,0.555L134.842,149.728L134.842,149.728z M138.327,148.877
			c0.014-0.758-0.311-1.933-1.646-1.933c-1.202,0-1.729,1.107-1.823,1.933H138.327z"/>
		<path fill="#808284" d="M142.375,144.368v1.877h1.701v0.904h-1.701v3.523c0,0.811,0.229,1.271,0.892,1.271
			c0.312,0,0.54-0.041,0.688-0.081l0.053,0.891c-0.229,0.096-0.594,0.162-1.053,0.162c-0.554,0-0.998-0.175-1.283-0.498
			c-0.338-0.353-0.459-0.934-0.459-1.703v-3.563h-1.012v-0.905h1.012v-1.565L142.375,144.368z"/>
		<path fill="#808284" d="M146.735,144.409c0.014,0.403-0.283,0.729-0.757,0.729c-0.418,0-0.716-0.324-0.716-0.729
			c0-0.42,0.311-0.744,0.742-0.744C146.452,143.665,146.735,143.989,146.735,144.409z M145.411,152.78v-6.535h1.188v6.535H145.411z"
			/>
		<path fill="#808284" d="M153.229,152.538c-0.311,0.161-0.999,0.377-1.877,0.377c-1.973,0-3.255-1.336-3.255-3.334
			c0-2.014,1.378-3.472,3.512-3.472c0.702,0,1.323,0.177,1.647,0.338l-0.271,0.918c-0.283-0.161-0.729-0.311-1.377-0.311
			c-1.499,0-2.311,1.106-2.311,2.471c0,1.513,0.974,2.444,2.27,2.444c0.676,0,1.121-0.176,1.459-0.324L153.229,152.538z"/>
		<path fill="#808284" d="M157.478,148.284c0-0.771-0.013-1.433-0.054-2.039h1.039l0.041,1.282h0.055
			c0.297-0.878,1.013-1.432,1.811-1.432c0.135,0,0.229,0.014,0.336,0.041v1.12c-0.121-0.026-0.242-0.041-0.404-0.041
			c-0.838,0-1.432,0.636-1.594,1.525c-0.026,0.162-0.055,0.353-0.055,0.555v3.483h-1.175V148.284L157.478,148.284z"/>
		<path fill="#808284" d="M167.361,150.999c0,0.674,0.015,1.27,0.054,1.781h-1.053l-0.068-1.066h-0.025
			c-0.311,0.526-1,1.216-2.161,1.216c-1.026,0-2.255-0.567-2.255-2.862v-3.822h1.188v3.619c0,1.242,0.379,2.08,1.459,2.08
			c0.797,0,1.351-0.554,1.565-1.081c0.067-0.175,0.108-0.392,0.108-0.606v-4.012h1.188L167.361,150.999L167.361,150.999z"/>
		<path fill="#808284" d="M169.329,148.013c0-0.677-0.013-1.229-0.054-1.771h1.054l0.067,1.08h0.026
			c0.324-0.621,1.08-1.229,2.16-1.229c0.905,0,2.311,0.539,2.311,2.781v3.902h-1.188v-3.768c0-1.055-0.393-1.932-1.514-1.932
			c-0.783,0-1.391,0.553-1.594,1.215c-0.055,0.148-0.081,0.353-0.081,0.555v3.93h-1.188V148.013z"/>
		<path fill="#808284" d="M176.82,148.013c0-0.677-0.013-1.229-0.054-1.771h1.054l0.067,1.08h0.027
			c0.322-0.621,1.08-1.229,2.16-1.229c0.904,0,2.309,0.539,2.309,2.781v3.902h-1.188v-3.768c0-1.055-0.392-1.932-1.513-1.932
			c-0.783,0-1.392,0.553-1.595,1.215c-0.053,0.148-0.08,0.353-0.08,0.555v3.93h-1.188V148.013z"/>
		<path fill="#808284" d="M185.636,144.409c0.013,0.403-0.284,0.729-0.757,0.729c-0.418,0-0.717-0.324-0.717-0.729
			c0-0.42,0.312-0.744,0.743-0.744C185.352,143.665,185.636,143.989,185.636,144.409z M184.312,152.78v-6.535h1.188v6.535H184.312z"
			/>
		<path fill="#808284" d="M187.47,148.013c0-0.677-0.013-1.229-0.054-1.771h1.054l0.067,1.08h0.026
			c0.323-0.621,1.08-1.229,2.16-1.229c0.905,0,2.31,0.539,2.31,2.781v3.902h-1.188v-3.768c0-1.055-0.393-1.932-1.514-1.932
			c-0.783,0-1.391,0.553-1.594,1.215c-0.054,0.148-0.08,0.353-0.08,0.555v3.93h-1.188V148.013z"/>
		<path fill="#808284" d="M200.593,146.245c-0.027,0.473-0.056,0.998-0.056,1.795v3.795c0,1.5-0.297,2.418-0.932,2.984
			c-0.635,0.594-1.553,0.783-2.376,0.783c-0.783,0-1.647-0.189-2.175-0.54l0.297-0.905c0.434,0.271,1.107,0.514,1.918,0.514
			c1.216,0,2.105-0.635,2.105-2.281v-0.729h-0.025c-0.365,0.607-1.066,1.094-2.08,1.094c-1.62,0-2.782-1.377-2.782-3.188
			c0-2.215,1.445-3.471,2.944-3.471c1.135,0,1.756,0.595,2.039,1.135h0.027l0.054-0.986H200.593L200.593,146.245z M199.363,148.823
			c0-0.201-0.013-0.378-0.067-0.539c-0.215-0.688-0.797-1.257-1.66-1.257c-1.135,0-1.944,0.959-1.944,2.472
			c0,1.282,0.647,2.351,1.933,2.351c0.729,0,1.391-0.459,1.646-1.216c0.066-0.202,0.094-0.432,0.094-0.635L199.363,148.823
			L199.363,148.823z"/>
		<path fill="#808284" d="M210.026,152.538c-0.311,0.161-0.999,0.377-1.877,0.377c-1.972,0-3.255-1.336-3.255-3.334
			c0-2.014,1.378-3.472,3.512-3.472c0.702,0,1.323,0.177,1.647,0.338l-0.271,0.918c-0.283-0.161-0.729-0.311-1.377-0.311
			c-1.499,0-2.31,1.106-2.31,2.471c0,1.513,0.973,2.444,2.269,2.444c0.676,0,1.121-0.176,1.459-0.324L210.026,152.538z"/>
		<path fill="#808284" d="M211.415,143.192h1.188v9.588h-1.188V143.192z"/>
		<path fill="#808284" d="M220.069,150.999c0,0.674,0.014,1.27,0.055,1.781h-1.054l-0.067-1.066h-0.026
			c-0.312,0.526-1,1.216-2.161,1.216c-1.025,0-2.255-0.567-2.255-2.862v-3.822h1.188v3.619c0,1.242,0.377,2.08,1.457,2.08
			c0.797,0,1.352-0.554,1.566-1.081c0.066-0.175,0.107-0.392,0.107-0.606v-4.012h1.188L220.069,150.999L220.069,150.999z"/>
		<path fill="#808284" d="M221.983,152.78c0.027-0.445,0.055-1.107,0.055-1.688v-7.899h1.176v4.104h0.025
			c0.42-0.729,1.176-1.201,2.229-1.201c1.62,0,2.769,1.351,2.755,3.336c0,2.336-1.473,3.497-2.932,3.497
			c-0.944,0-1.701-0.364-2.188-1.229h-0.041l-0.055,1.08H221.983L221.983,152.78z M223.213,150.161c0,0.147,0.025,0.297,0.054,0.433
			c0.229,0.823,0.918,1.391,1.782,1.391c1.242,0,1.984-1.013,1.984-2.512c0-1.31-0.676-2.431-1.943-2.431
			c-0.812,0-1.566,0.554-1.811,1.457c-0.027,0.137-0.066,0.299-0.066,0.486V150.161z"/>
	</g>
</g>
</svg>
