<?xml version="1.0" encoding="utf-8"?>
<!-- Generator: Adobe Illustrator 16.0.0, SVG Export Plug-In . SVG Version: 6.00 Build 0)  -->
<!DOCTYPE svg PUBLIC "-//W3C//DTD SVG 1.1//EN" "http://www.w3.org/Graphics/SVG/1.1/DTD/svg11.dtd">
<svg version="1.1" id="Layer_1" xmlns="http://www.w3.org/2000/svg" xmlns:xlink="http://www.w3.org/1999/xlink" x="0px" y="0px"
	 width="796.106px" height="607.563px" viewBox="24.414 268.342 796.106 607.563"
	 enable-background="new 24.414 268.342 796.106 607.563" xml:space="preserve">
<g>
	<path fill="#808080" d="M244.99,465.624c27.502,0,50.794-9.541,69.597-28.904c19.363-19.363,28.904-42.376,28.904-69.597
		c0-27.502-9.541-50.794-28.904-69.877c-19.363-19.363-42.375-28.904-69.597-28.904c-27.501,0-50.794,9.541-69.877,28.904
		c-19.082,19.363-28.904,42.656-28.904,70.157c0,27.502,9.541,50.795,28.904,69.597C194.196,455.802,217.489,465.624,244.99,465.624
		z"/>
	<path fill="#808080" d="M811.581,391.257c-7.016-7.016-15.715-10.663-25.817-10.663c-10.104,0-18.522,3.647-25.818,10.663
		l-85.873,86.154H534.88l-81.383-81.383c-1.122-1.685-2.525-3.368-4.209-4.771c-7.016-7.016-15.716-10.663-25.818-10.663h-0.28
		h-0.281c-10.103,0-18.521,3.647-25.817,10.663c-1.403,1.403-2.807,3.087-4.21,4.771l-81.382,81.383H172.868l-86.153-86.154
		c-7.017-7.016-15.716-10.663-25.818-10.663s-18.521,3.647-25.818,10.663c-7.016,7.017-10.664,15.716-10.664,25.818
		s3.648,18.521,10.664,25.818L142.56,553.18v280.63c0,11.506,4.21,21.608,12.348,29.747c8.419,8.419,18.241,12.348,29.747,12.348
		s21.608-4.21,29.747-12.348c8.419-8.419,12.348-18.241,12.348-29.747V688.725h29.746V833.81c0,11.506,4.21,21.608,12.348,29.747
		c8.419,8.419,18.241,12.348,29.747,12.348s21.608-4.21,29.747-12.348c8.419-8.419,12.348-18.241,12.348-29.747V553.18
		l81.382-84.188l81.383,84.188v280.63c0,11.506,4.21,21.608,12.348,29.747c8.419,8.419,18.241,12.348,29.747,12.348
		s21.608-4.21,29.747-12.348c8.419-8.419,12.348-18.241,12.348-29.747V688.725h29.746V833.81c0,11.506,4.21,21.608,12.348,29.747
		c8.42,8.419,18.241,12.348,29.747,12.348s21.608-4.21,29.747-12.348c8.419-8.419,12.348-18.241,12.348-29.747V553.18
		l107.481-110.287c7.016-7.016,10.664-15.716,10.664-25.818C822.245,406.692,818.597,398.273,811.581,391.257z"/>
	<path fill="#808080" d="M397.933,324.468c2.807,3.929,5.894,7.296,8.699,10.103c2.807,2.806,6.174,5.612,10.104,8.419
		c3.929,2.525,8.138,4.771,12.348,6.454c4.209,1.684,9.261,2.807,14.593,3.648c5.612,0.562,11.506,0.842,17.68,0.28
		c4.771-0.28,9.541-1.403,13.47-2.807c3.929-1.402,7.577-3.367,10.103-5.331c2.525-1.965,5.332-4.21,7.857-6.455
		c2.245-2.245,4.49-4.49,6.735-7.296c1.965-2.245,4.21-4.49,6.174-6.455c1.965-1.964,4.49-3.647,7.297-4.771
		c1.964-0.842,3.929-1.684,5.893-1.964c-8.419,14.312-12.628,30.869-12.628,48.829c0,27.502,9.541,50.794,28.905,69.597
		c19.363,19.363,42.375,28.904,69.876,28.904c27.502,0,50.795-9.541,69.597-28.904c19.363-19.363,28.905-42.376,28.905-69.597
		c0-18.241-4.21-34.798-13.19-49.11c2.807,0.281,5.613,0.842,8.139,2.245s5.332,2.807,7.297,4.771
		c1.964,1.965,4.209,4.21,6.174,6.455c1.964,2.245,4.209,4.49,6.734,7.296c2.245,2.245,4.771,4.49,7.858,6.455
		c2.806,1.964,6.174,3.647,10.103,5.331c3.929,1.403,8.419,2.245,13.47,2.807c6.174,0.562,12.067,0.281,17.68-0.28
		s10.384-1.965,14.593-3.648c4.21-1.684,8.139-3.929,12.348-6.454c3.929-2.526,7.297-5.613,10.103-8.419
		c2.807-2.807,5.894-6.174,8.7-10.103l0,0v-0.281c-8.419,2.245-15.716,2.807-21.608,2.525c-3.368-0.28-6.174-0.842-8.7-2.244
		c-2.525-1.403-5.332-2.807-7.296-4.771c-1.965-1.964-4.21-4.209-6.174-6.454c-1.965-2.245-4.21-4.49-6.735-7.297
		c-2.245-2.244-4.771-4.489-7.857-6.454c-2.526-1.964-6.174-3.648-10.103-5.332c-3.93-1.403-8.419-2.245-13.471-2.807
		c-6.174-0.561-12.067-0.28-17.68,0.281s-10.383,1.964-14.593,3.648c-4.209,1.684-8.138,3.929-12.348,6.454
		c-1.964,1.403-3.648,2.525-4.771,3.929c-2.245-2.807-4.771-5.612-7.577-8.138c-19.363-19.364-42.375-28.905-69.597-28.905
		c-27.501,0-50.794,9.541-69.876,28.905c-2.245,2.244-4.49,4.771-6.735,7.576c-1.403-0.842-2.525-1.964-3.929-2.806
		c-3.929-2.526-8.139-4.771-12.348-6.455c-4.21-1.684-9.261-2.806-14.593-3.647c-5.613-0.562-11.506-0.843-17.68-0.281
		c-4.771,0.281-9.542,1.403-13.471,2.807s-7.577,3.367-10.103,5.332c-2.525,1.964-5.332,4.209-7.857,6.454
		c-2.245,2.245-4.49,4.49-6.735,7.297c-1.964,2.245-4.209,4.49-6.174,6.454c-1.965,1.965-4.49,3.648-7.296,4.771
		c-2.526,1.403-5.894,2.245-8.7,2.245C413.367,327.273,406.072,326.431,397.933,324.468L397.933,324.468L397.933,324.468z"/>
</g>
</svg>
